<?xml version="1.0" encoding="utf-8"?>
<svg id="Layer_2" data-name="Layer 2" xmlns="http://www.w3.org/2000/svg" viewBox="0 0 626.98 779.24">
  <defs>
    <style>
      .cls-1 {
        fill: #ffefbf;
      }
      /* Dark mode: invert SVG colors */
      @media (prefers-color-scheme: dark) {
        svg {
          filter: invert(1);
        }
      }
    </style>
  </defs>
  <path class="cls-1" d="M496.92,521.49H131.03c-61.28,0-111.13-49.85-111.13-111.13V131.03c0-61.28,49.85-111.13,111.13-111.13h364.93c61.28,0,111.13,49.85,111.13,111.13v474.13l-110.17-83.66Z" style="fill: rgb(255, 255, 255);"/>
  <circle cx="151.59" cy="178.57" r="50"/>
  <circle cx="363.49" cy="178.57" r="50"/>
  <path d="M495.96,0H131.03C58.66,0,0,58.66,0,131.03v279.33c0,72.36,58.66,131.03,131.03,131.03h359.19l136.76,103.85V131.03C626.98,58.66,568.32,0,495.96,0ZM587.2,409.52v155.55l-72.92-55.37-6.29-4.78V177.78h-39.79v323.82H131.03c-50.31,0-91.24-40.93-91.24-91.24V131.03c0-50.31,40.93-91.24,91.24-91.24h364.93c50.31,0,91.24,40.93,91.24,91.24v278.5Z"/>
  <polygon points="191.23 289.2 191.23 328.99 235.04 328.99 235.04 386 269.68 386 269.68 328.99 313.49 328.99 313.49 289.2 191.23 289.2"/>
  <g>
    <path d="M28.96,677.94h38.8c21.88,0,31.57,11.57,31.57,25.38,0,12.56-6.87,17.9-12.16,20.16,7.35,3.07,15.61,10.32,15.61,24.11,0,19.24-14.47,30.21-35.72,30.21H28.96v-99.86ZM64.26,717.22c10.49,0,15.33-3.33,15.33-11.82s-5.62-11.95-14.31-11.95h-16.35v23.77h15.33ZM48.93,762.43h16.63c9.24,0,16.46-4.45,16.46-14.8,0-9.72-5.7-15-18-15h-15.1v29.8Z"/>
    <path d="M113.92,777.8v-105.99h19.81v105.99h-19.81Z"/>
    <path d="M208.35,758.26c0,5.1.33,14.19,1.04,19.54h-17.35c-.57-2.26-1.02-6.8-1.15-9.12-3.14,6.12-10.22,10.43-21.12,10.43-18.66,0-25.27-11.63-25.27-23.03,0-13.58,9.4-24.77,35.56-24.77h8.87v-5.48c0-6.17-1.91-10.95-10.76-10.95s-10.88,4.48-11.58,10.02h-19.17c.8-11.91,7.94-23.99,31.06-23.99,17.82,0,29.88,6.14,29.88,24.81v32.54ZM189.58,743.98h-9.17c-13.53,0-16.05,5.5-16.05,10.55s3.07,9.56,10.61,9.56c11.83,0,14.62-7.87,14.62-18.53v-1.59Z"/>
    <path d="M224.08,671.82h19.81v38.75c3.21-4.78,9.1-9.65,20.85-9.65,19.47,0,29.12,16.74,29.12,36.73,0,24.23-10.78,41.47-31.91,41.47-10.89,0-15.78-4.59-18.31-8.63-.11,2.45-.27,4.85-.57,7.32h-19.28c.15-5.04.29-15.38.29-22.99v-82.99ZM273.86,738.45c0-12.39-4.59-21.34-15.5-21.34-11.85,0-15.55,7.93-15.55,22.45,0,15.57,3.97,23.61,15.48,23.61,10.65,0,15.57-9.52,15.57-24.73Z"/>
    <path d="M305.27,777.8v-105.99h19.81v105.99h-19.81Z"/>
    <path d="M399.69,758.26c0,5.1.33,14.19,1.04,19.54h-17.35c-.57-2.26-1.02-6.8-1.15-9.12-3.14,6.12-10.22,10.43-21.12,10.43-18.66,0-25.27-11.63-25.27-23.03,0-13.58,9.4-24.77,35.56-24.77h8.87v-5.48c0-6.17-1.91-10.95-10.76-10.95s-10.88,4.48-11.58,10.02h-19.17c.8-11.91,7.94-23.99,31.06-23.99,17.82,0,29.88,6.14,29.88,24.81v32.54ZM380.93,743.98h-9.17c-13.53,0-16.05,5.5-16.05,10.55s3.07,9.56,10.61,9.56c11.83,0,14.62-7.87,14.62-18.53v-1.59Z"/>
    <path d="M480.59,671.82v84.96c0,8.8.13,16.62.29,21.02h-19.29c-.27-2.02-.68-6.45-.68-8.91-3.57,6.57-9.19,10.35-21.18,10.35-19.22,0-29.17-15.7-29.17-39.01s12.14-39.32,32.48-39.32c11.23,0,16.07,3.85,17.74,6.87v-35.96h19.81ZM430.81,739.54c0,14.13,4.76,23.65,15.46,23.65,12.92,0,15.43-8.77,15.43-23.5,0-16.15-3.23-22.6-14.81-22.6-9.76,0-16.08,7.42-16.08,22.45Z"/>
    <path d="M564.07,739.03c0,22.01-10.52,40.2-36.16,40.2s-35.5-19.39-35.5-39.78c0-18.79,10.64-38.54,36.51-38.54,24.3,0,35.15,17.67,35.15,38.12ZM512.53,738.96c0,16.09,5.56,24.75,16.12,24.75,9.92,0,15.42-8.6,15.42-24.54,0-14.96-5.16-22.73-15.97-22.73-10.03,0-15.57,8.74-15.57,22.52Z"/>
    <path d="M575.31,727.91c0-12.39-.02-20.36-.29-25.54h19.29c.4,3.26.53,8.05.53,13.23,2.54-6.33,9.16-14.39,22.83-14.43v20.02c-15.55-.25-22.56,5.01-22.56,22.33v34.28h-19.81v-49.89Z"/>
  </g>
</svg>